<svg width="334" height="28" viewBox="0 0 334 28" fill="none" xmlns="http://www.w3.org/2000/svg">
<path fill-rule="evenodd" clip-rule="evenodd" d="M0 4C0 1.79086 1.79086 0 4 0C13.4045 0 20.6158 5.79188 26.5248 10.5378C26.6678 10.6526 26.8099 10.7667 26.9513 10.8802C33.4259 16.0754 38.5569 20 44.8959 20C51.2348 20 56.3659 16.0754 62.8405 10.8802C62.9819 10.7667 63.124 10.6526 63.2669 10.5378C69.1759 5.79189 76.3873 0 85.7918 0C95.1962 0 102.408 5.79188 108.317 10.5378C108.46 10.6526 108.602 10.7667 108.743 10.8802C115.218 16.0754 120.349 20 126.688 20C133.027 20 138.158 16.0754 144.632 10.8802C144.774 10.7667 144.916 10.6526 145.059 10.5378C150.968 5.79188 158.179 0 167.584 0C176.988 0 184.199 5.79188 190.108 10.5378C190.251 10.6526 190.393 10.7667 190.535 10.8802C197.009 16.0754 202.14 20 208.479 20C214.818 20 219.949 16.0754 226.424 10.8802C226.565 10.7667 226.708 10.6526 226.85 10.5378C232.759 5.79188 239.971 0 249.375 0C258.78 0 265.991 5.79184 271.9 10.5377C272.043 10.6525 272.185 10.7667 272.327 10.8802C278.801 16.0754 283.932 20 290.271 20C296.574 20 301.53 16.1102 307.745 10.9279C307.921 10.7811 308.098 10.633 308.277 10.4839C313.91 5.779 320.829 0 330 0C332.209 0 334 1.79086 334 4C334 6.20914 332.209 8 330 8C323.946 8 319.132 11.8488 312.868 17.0721L312.563 17.327C306.839 22.1024 299.769 28 290.271 28C280.867 28 273.655 22.2082 267.746 17.4623C267.603 17.3475 267.461 17.2333 267.32 17.1198C260.845 11.9246 255.714 8 249.375 8C243.036 8 237.905 11.9246 231.431 17.1198C231.289 17.2333 231.147 17.3474 231.004 17.4622C225.095 22.2081 217.884 28 208.479 28C199.075 28 191.864 22.2081 185.955 17.4622C185.812 17.3474 185.67 17.2333 185.528 17.1198C179.054 11.9246 173.922 8 167.584 8C161.245 8 156.114 11.9246 149.639 17.1198C149.498 17.2333 149.355 17.3474 149.213 17.4622C143.303 22.2081 136.092 28 126.688 28C117.283 28 110.072 22.2081 104.163 17.4622C104.02 17.3474 103.878 17.2333 103.736 17.1198C97.2618 11.9246 92.1307 8 85.7918 8C79.4528 8 74.3217 11.9246 67.8472 17.1198C67.7058 17.2333 67.5636 17.3474 67.4207 17.4622C61.5117 22.2081 54.3003 28 44.8959 28C35.4914 28 28.2801 22.2081 22.371 17.4622C22.2281 17.3474 22.086 17.2333 21.9446 17.1198C15.47 11.9246 10.3389 8 4 8C1.79086 8 0 6.20914 0 4Z" fill="#ECA400"/>
</svg>
